<?xml version="1.0" encoding="utf-8"?>
<svg viewBox="0 0 100 100" xmlns="http://www.w3.org/2000/svg">
  <defs>
    <linearGradient gradientUnits="userSpaceOnUse" x1="49.659" y1="0.848" x2="49.659" y2="99.348" id="gradient-0" spreadMethod="pad">
      <stop offset="0" style="stop-color: rgb(12.157% 9.8039% 8.2353%)"/>
      <stop offset="1" style="stop-color: rgb(9.423% 6.6313% 4.3227%)"/>
    </linearGradient>
  </defs>
  <path d="M 95.884 0.848 L 97.884 30.948 L 95.034 30.948 C 95.034 30.348 92.884 22.698 92.584 21.998 C 92.284 21.298 91.884 20.948 91.384 20.948 L 59.934 20.948 L 59.934 92.848 C 59.934 93.348 60.334 93.748 61.134 94.048 C 61.934 94.348 68.734 96.498 69.534 96.498 L 69.534 99.348 L 29.934 99.348 L 29.934 96.498 C 30.734 96.498 37.534 94.348 38.334 94.048 C 39.134 93.748 39.534 93.348 39.534 92.848 L 39.534 20.948 L 7.934 20.948 C 7.434 20.948 7.034 21.298 6.734 21.998 C 6.434 22.698 4.284 30.348 4.284 30.948 L 1.434 30.948 L 3.434 0.848 L 6.284 0.848 C 6.284 1.448 6.434 2.098 6.734 2.798 C 7.034 3.498 7.434 3.848 7.934 3.848 L 91.384 3.848 C 91.884 3.848 92.284 3.498 92.584 2.798 C 92.884 2.098 93.034 1.448 93.034 0.848 L 95.884 0.848 Z" style="paint-order: fill; fill: url('#gradient-0');"/>
</svg>